# xmcd CD database file
#
# Track frame offsets:
#	150
#	22782
#	51199
#	77786
#	103254
#	118086
#	137516
#	156906
#	175695
#	197985
#	217233
#	237490
#	258241
#	276027
#	292930
#	312674
#
# Disc length: 4337 seconds
#
# Revision: 0
# Processed by: cddbd v1.5.2PL0 Copyright (c) Steve Scherf et al.
# Submitted via: CDex 1.51
#
DISCID=ec10ef10
DTITLE=Various Artist - WTPI Indy Jazz Sampler Volume 5
DYEAR=2002
DGENRE=Jazz
TTITLE0=Cathy Morris - Smooth Talk
TTITLE1=Harry Miedema and Deep Six - Pieces
TTITLE2=Cynthia Layne - Sweetest Taboo
TTITLE3=Jeff DeHerdt Group - Sirius Waltz
TTITLE4=Russell Webster - Rock My Cradle
TTITLE5=Jennie DeVoe - Don't Forget To Breathe
TTITLE6=Becky Archibald - 40's Love Song
TTITLE7=Jazz State of Indiana - I'm Gonna Stomp, Mr. Henry Lee
TTITLE8=Simon Rowe Trio - Like Someone In Love
TTITLE9=Michael Brown and Cherryl Hayes - Don't Mean a Thing
TTITLE10=Dave Hepler - Up the Lazy River
TTITLE11=Conga Jazz - Love Is You
TTITLE12=Mary Moss and The Carl Hines Quintet - Fly Me to the Moon
TTITLE13=Jimmy Coe and Paul Weeden - At Odds
TTITLE14=Amy Stephens - Hold the Turkey, Please!
TTITLE15=Janiece Jaffe - Till There Was You
EXTD=YEAR: 2002
EXTT0=
EXTT1=
EXTT2=
EXTT3=
EXTT4=
EXTT5=
EXTT6=
EXTT7=
EXTT8=
EXTT9=
EXTT10=
EXTT11=
EXTT12=
EXTT13=
EXTT14=
EXTT15=
PLAYORDER=
